<?xml version="1.0" encoding="utf-8"?>
<!-- Generator: Adobe Illustrator 21.0.0, SVG Export Plug-In . SVG Version: 6.00 Build 0)  -->
<svg version="1.1" id="Ebene_1" xmlns="http://www.w3.org/2000/svg" xmlns:xlink="http://www.w3.org/1999/xlink" x="0px" y="0px"
	 viewBox="0 0 2048 2048" style="enable-background:new 0 0 2048 2048;" xml:space="preserve">
<style type="text/css">
	.st0{fill:url(#SVGID_1_);stroke:#FFFFFF;stroke-miterlimit:10;}
	.st1{fill:url(#SVGID_2_);stroke:#FFFFFF;stroke-miterlimit:10;}
	.st2{fill:url(#SVGID_3_);stroke:#FFFFFF;stroke-miterlimit:10;}
	.st3{fill:url(#SVGID_4_);stroke:#FFFFFF;stroke-miterlimit:10;}
	.st4{fill:url(#SVGID_5_);stroke:#FFFFFF;stroke-miterlimit:10;}
	.st5{fill:url(#SVGID_6_);stroke:#FFFFFF;stroke-miterlimit:10;}
	.st6{fill:url(#SVGID_7_);stroke:#FFFFFF;stroke-miterlimit:10;}
	.st7{fill:url(#SVGID_8_);stroke:#FFFFFF;stroke-miterlimit:10;}
</style>
<g>
	
		<linearGradient id="SVGID_1_" gradientUnits="userSpaceOnUse" x1="263.2684" y1="1027.4579" x2="1783.8562" y2="1027.4579" gradientTransform="matrix(1 0 0 -1 0 2050)">
		<stop  offset="0" style="stop-color:#B8292B"/>
		<stop  offset="1" style="stop-color:#EAD630"/>
	</linearGradient>
	<path class="st0" d="M1781.3,1024.4c39.5,668.8-381.7,970.3-722.4,986.8c-418.1,20.3-819.7-276.8-794.5-986.8
		c14.3-401,321.6-991.4,740.5-991.4C1423.8,32.9,1748.3,467.7,1781.3,1024.4L1781.3,1024.4z"/>
	
		<linearGradient id="SVGID_2_" gradientUnits="userSpaceOnUse" x1="995.7436" y1="51.6416" x2="1069.569" y2="2050.1079" gradientTransform="matrix(1 0 0 -1 0 2050)">
		<stop  offset="0" style="stop-color:#B8292B"/>
		<stop  offset="1" style="stop-color:#EAD630"/>
	</linearGradient>
	<path class="st1" d="M868.4,1644.3C966.6,1877,690.2,1804,718,1660.5c27.8-143.5,46.6-171.9-53.2-266.1
		c84.9,338.3-120.2,199.4-124.9,78.7c-1.2-31.1,15-42.4-27.8-80.5c-7.4,180-107.6,44.4-129.6-167.1
		c-33.1,265.9,29.9,254.3,106.4,358.7c148.6,202.4,39.1,273.1-76.4-4.6c-18.7,81.4,44.6,177.2,107.8,247.5
		c112.1,124.7,709,430,1134.8-173.4c-35.3,27.8-34-5.5-58.3,27.1c1.8-68.4,5.3-75.3,28.5-126.9c-67,29.6-61,92.2-71.9,120.6
		c-28.2,73.5-171.4,142.8-113.6,47.9c57.9-94.9,221.7-247.2,132.1-332.6c-15.6,227-172.1,218.8-158.2,135.5
		c13.9-83.3,55.8-81.2,26.3-135.5c-110.4,177.9-190.9-0.8-157.4-157.4c-135.2,72.5,24.6,254.8,23.1,378.6
		c-3,251.8-272.1,187.6-134.2-33.8c-62.3,4.6-69.9,55.7-88.5,122.6c-27.5,98.8-83.7,127.5-138.3,34.7
		C916.5,1686.4,929.2,1660.2,868.4,1644.3L868.4,1644.3z"/>
	
		<linearGradient id="SVGID_3_" gradientUnits="userSpaceOnUse" x1="979.2403" y1="56.7279" x2="1052.6646" y2="2044.0848" gradientTransform="matrix(1 0 0 -1 0 2050)">
		<stop  offset="0" style="stop-color:#B8292B"/>
		<stop  offset="1" style="stop-color:#EAD630"/>
	</linearGradient>
	<path class="st2" d="M1620.8,561.1c8.2,114,120.2,218,142.7,326.7C1649.4-49.5,573.7-448.5,275.8,908.4c14.3-61.2,11.4-67,42-104.5
		c-39.1,87.8-38.9,280.2-12.2,240.6c46.4-69,10-275.8,82.7-309c-50.1,175.6-3.2,228.8,35.9,151.9s-68.5-411.1,109.2-481.2
		c-150,172.8,39.1,167.9,114.1-128.8c96.2,228.2-35.3,176.5-65.2,291.8C522,802.4,723.5,685.1,683.4,508.9
		c176.1,92,6.6,185.3-99.5,375c-223.3,399.4,265.8,414.1,119,195.6c-57.2-85.2-123.9-267.4,52.2-296.7
		c-112.5,166.3,183.8,270.2,99.5,13c-34.2-104.4,60.3-138.6-16.3-225c220.1,128.7,62,309.8,127.2,344
		c65.2,34.2,80.3-73.2,26.1-198.9c360.3,99.5,6,345.6-79.9,467.9c-150,213.6,293.5,264.1,181,13c-44.5-99.3-14.7-138.6,35.9-150
		c0,223.4,231.5,164.7,130.4-44c-51.7-106.7-75-203.8,29.3-280.4c-86.4,314.7,256,280.4,88-32.6c-41.3-77-269-172.8-130.4-298.4
		c-9.8,238,259.2,107.6,4.9-94.6c236.4,9.8,193.3,247.9,218.5,317.9c62,172.8,156.2,66.6,54.3-98.5
		c126.7,59.4,36.6,299.8,28.9,462.1c-11.4,239.7,150.2,137,125.6,71.7c-45.7-120.7-78.3-171.2-29.3-272.3
		c-18,241.3,125.5,278.8,47.3,24.5C1672.3,725.6,1554,632.8,1620.8,561.1L1620.8,561.1z M1110.6,302.8
		c-40.4,82.6-58,119.5-35.1,293.5c-207.4-165.2-251.3-418.3-116-478c-40.4,79.1,84.4,100.2,33.4,193.3
		c100.2-56.2,98.7-142.5,86.1-216.2C1119.4,123.5,1151,220.2,1110.6,302.8z"/>
	
		<radialGradient id="SVGID_4_" cx="1011.0648" cy="847.3159" r="1330.2639" gradientTransform="matrix(1 0 0 -1 0 2050)" gradientUnits="userSpaceOnUse">
		<stop  offset="0" style="stop-color:#EAD630"/>
		<stop  offset="1" style="stop-color:#B8292B"/>
	</radialGradient>
	<path class="st3" d="M568,522.6c-152.7,56-54.2,131-75.9,240.3S427.2,880,461.4,952.6c28-87.6,50.6-98.5,82.2-110.2
		c49.2-18.3,91.2-42.5,62.3-77.7c-9.9,19.9-29.9,48.4-69.7,0.5C496.5,717.3,552.7,534.3,568,522.6z"/>
	
		<radialGradient id="SVGID_5_" cx="1011.0942" cy="847.3159" r="1330.166" gradientTransform="matrix(1 0 0 -1 0 2050)" gradientUnits="userSpaceOnUse">
		<stop  offset="0" style="stop-color:#EAD630"/>
		<stop  offset="1" style="stop-color:#B8292B"/>
	</radialGradient>
	<path class="st4" d="M894.2,901.1c8.1,42.5-7,158.7-76.8,136.1c-37.9-12.3-72.3-20.4-93.1-84.6c-60.5,84.6,61.4,168,81.3,220.4
		c37-91.2,235.8-108.4,193.3-182.5c-11.7,39.8-45.3,51.9-72.3,35.3C903.6,1011.7,949.3,935.4,894.2,901.1z"/>
	
		<radialGradient id="SVGID_6_" cx="1011.0942" cy="847.3159" r="1330.3617" gradientTransform="matrix(1 0 0 -1 0 2050)" gradientUnits="userSpaceOnUse">
		<stop  offset="0" style="stop-color:#EAD630"/>
		<stop  offset="1" style="stop-color:#B8292B"/>
	</radialGradient>
	<path class="st5" d="M1464.7,962.4c-253.9,100.5,60.8,205.5-69.1,345.2C1625.9,1337.5,1384.8,1031.6,1464.7,962.4z"/>
	
		<radialGradient id="SVGID_7_" cx="1011.0942" cy="847.3159" r="1330.3617" gradientTransform="matrix(1 0 0 -1 0 2050)" gradientUnits="userSpaceOnUse">
		<stop  offset="0" style="stop-color:#EAD630"/>
		<stop  offset="1" style="stop-color:#B8292B"/>
	</radialGradient>
	<path class="st6" d="M1396.4,512.6c7.2,27.1,51.5,95.8-26.2,116.5c59.6,26.2,124.7,190.9,86.7,265.9c65,6.1,21.3-37.7,41.2-68
		c24.1-36.7,77.2-21.1,56.3-61.4c-5.4,19-15.8,32.2-38.7,16.1C1460.9,743,1451.5,512.6,1396.4,512.6z"/>
	
		<radialGradient id="SVGID_8_" cx="1011.1039" cy="847.3159" r="1330.3617" gradientTransform="matrix(1 0 0 -1 0 2050)" gradientUnits="userSpaceOnUse">
		<stop  offset="0" style="stop-color:#EAD630"/>
		<stop  offset="1" style="stop-color:#B8292B"/>
	</radialGradient>
	<path class="st7" d="M1073.3,299.1c-103.7,56.2-121.3,109-55.9,182.8C987.2,396.6,1040.3,362.3,1073.3,299.1z"/>
</g>
</svg>
